<svg xmlns="http://www.w3.org/2000/svg" viewBox="0 0 64 64" width="48px" height="48px"><path fill="#ace3ff" d="M31 5A28 28 0 1 0 31 61A28 28 0 1 0 31 5Z"/><path fill="#85cbf8" d="M31,55A22,22,0,1,1,53,33,22,22,0,0,1,31,55Z"/><path fill="#faefde" d="M7,21h8l9.11,23.56,5.67-13.11-4-10.11,8.89-.44,8.44,23.56,5-13-1.56-6.11-1.89-5.22s.78-4.56,2.89-4.56S53.22,15,54.11,17s.78,5.89-.56,10.11S41.22,58.67,41.22,58.67l-.89.11L31.56,36,22.11,59.33l-1-.33Z"/><path fill="#8d6c9f" d="M55,16.78a4.19,4.19,0,0,0-.24-.44,4.74,4.74,0,0,0-.64-.78A29,29,0,0,0,5.37,19.45l-.05.1a29,29,0,0,0,16,40.76l.12,0A29,29,0,0,0,55,16.78ZM49.5,35.44l-8.57,22-8.57-22v0a1,1,0,0,0-.13-.2A.43.43,0,0,0,32,35a1,1,0,0,0-.19-.12h0a.94.94,0,0,0-.15,0,.64.64,0,0,0-.44,0,.93.93,0,0,0-.14,0h0a1,1,0,0,0-.2.13.43.43,0,0,0-.21.21,1,1,0,0,0-.13.2v0l-8.57,22L8.13,22h6.18l9,23.52v0l0,.08a1,1,0,0,0,.15.21l.08.08a1,1,0,0,0,.22.14l.06,0h0a.91.91,0,0,0,.66,0h0l.06,0a1,1,0,0,0,.23-.14l.08-.08a1,1,0,0,0,.15-.21l0-.08v0l5.41-13.87V31.6s0-.06,0-.08a.7.7,0,0,0,0-.48.94.94,0,0,0,0-.16L27.13,22h6.18l9,23.52v0l0,.08a1,1,0,0,0,.15.21l.08.08a1,1,0,0,0,.22.14l.06,0h0a1,1,0,0,0,.33.06h0l.15,0a.94.94,0,0,0,.2,0h0A1,1,0,0,0,43.8,46a.46.46,0,0,0,.22-.22,1,1,0,0,0,.13-.19v0l4.65-11.95c1.07-3.52-.27-6.14-1.45-8.45-1-2-1.87-3.65-1.4-5.75A4.21,4.21,0,0,1,49.42,16a3.75,3.75,0,0,1,3.23.84c.2.27.4.55.59.83C54.73,20.91,51.8,30.15,49.5,35.44ZM31,6a26.92,26.92,0,0,1,19.15,8,6.48,6.48,0,0,0-1.08.09A6.22,6.22,0,0,0,44,19c-.63,2.81.49,5,1.57,7.09s2.16,4.21,1.34,6.88l-3.69,9.46L35.45,22H37a1,1,0,0,0,0-2H23a1,1,0,0,0,0,2h2l3.6,9.24L24.24,42.39,16.45,22H19a1,1,0,0,0,0-2H7.35A27,27,0,0,1,31,6ZM4,33A26.85,26.85,0,0,1,6.15,22.44l13.7,35.14A27,27,0,0,1,4,33ZM23.5,58.93l7.94-20.37,7.85,20.13a26.91,26.91,0,0,1-15.79.24Zm19.73-1.87,8.13-20.86c.48-1.11,3.65-8.58,4.21-14.4A27,27,0,0,1,43.22,57.06Z"/><path fill="#8d6c9f" d="M31 13a1 1 0 0 0 1-1V10a1 1 0 0 0-2 0v2A1 1 0 0 0 31 13zM25 12.92a1 1 0 1 0 1.93-.52l-.52-1.93a1 1 0 0 0-1.93.52zM40.26 15.48a1 1 0 0 0 1.37-.37l1-1.73a1 1 0 1 0-1.73-1l-1 1.73A1 1 0 0 0 40.26 15.48zM20.4 15.11a1 1 0 0 0 1.73-1l-1-1.73a1 1 0 0 0-1.73 1zM35.8 13.63A1 1 0 0 0 37 12.92L37.54 11a1 1 0 0 0-1.93-.52l-.52 1.93A1 1 0 0 0 35.8 13.63z"/></svg>